# xmcd
#
# Track frame offsets: 
#        150
#        12464
#        24729
#        52847
#        80816
#        113619
#        142206
#        179945
#        197135
#        222087
#        250738
#        272573
#        328415
#
# Disc length: 4795 seconds
#
# Revision: 1
# Processed by: cddbd v1.5.2PL0 Copyright (c) Steve Scherf et al.
# Submitted via: ExactAudioCopy v0.95b4
#
DISCID=c812b90d
DTITLE=DZEM - WEHIKUL CZASU SPODEK VOL1
DYEAR=2003
DGENRE=Blues
TTITLE0=POWITANIE
TTITLE1=ZIELONY PIOTRUS
TTITLE2=ZLOTY PAW
TTITLE3=WEHIKUL CZASU - TO BYLBY CUD
TTITLE4=DETOX
TTITLE5=SEN O VICTORII
TTITLE6=OSTATNIE WIDZENIE
TTITLE7=CZLOWIEKU, CO SIE Z TOBA DZIEJE
TTITLE8=MALA ALEJA ROZ
TTITLE9=MAMY FORSE - MAMY CZAS
TTITLE10=POZNALEM GO PO CZARNYM KAPELUSZU
TTITLE11=WHISKY
TTITLE12=DATA
EXTD=
EXTT0=
EXTT1=
EXTT2=
EXTT3=
EXTT4=
EXTT5=
EXTT6=
EXTT7=
EXTT8=
EXTT9=
EXTT10=
EXTT11=
EXTT12=
PLAYORDER=
